<svg width="1864" height="100" viewBox="0 0 1864 100" fill="none" xmlns="http://www.w3.org/2000/svg">
<path d="M1.00001 0L1 100" stroke="black"/>
<path d="M99 0L99 100" stroke="black"/>
<path d="M197 0L197 100" stroke="black"/>
<path d="M295 0L295 100" stroke="black"/>
<path d="M393 0L393 100" stroke="black"/>
<path d="M491 0L491 100" stroke="black"/>
<path d="M589 0L589 100" stroke="black"/>
<path d="M687 0L687 100" stroke="black"/>
<path d="M785 0L785 100" stroke="black"/>
<path d="M883 0L883 100" stroke="black"/>
<path d="M981 0L981 100" stroke="black"/>
<path d="M1079 0L1079 100" stroke="black"/>
<path d="M1177 0L1177 100" stroke="black"/>
<path d="M1275 0L1275 100" stroke="black"/>
<path d="M1373 0L1373 100" stroke="black"/>
<path d="M1471 0L1471 100" stroke="black"/>
<path d="M1569 0L1569 100" stroke="black"/>
<path d="M1667 0L1667 100" stroke="black"/>
<path d="M1765 0L1765 100" stroke="black"/>
<path d="M1863 0L1863 100" stroke="black"/>
</svg>
