<svg width="72" height="28" viewBox="0 0 72 28" fill="none" xmlns="http://www.w3.org/2000/svg">
<g style="mix-blend-mode:exclusion">
<path d="M0 13.8088L0.805614 9.39H3.68886L4.53688 4.5888H10.2186L9.37056 9.39H13.1866L12.381 13.8088H8.64975L7.33532 20.9044C7.29292 21.2443 7.25052 21.6267 7.25052 21.8816C7.25052 23.0713 7.97134 23.4537 9.15856 23.4537C9.75217 23.4537 10.3034 23.3263 10.7698 23.2413L10.2186 27.4476C9.54016 27.7451 8.14094 28 7.03852 28C3.56166 28 1.39922 26.5979 1.39922 23.5812C1.39922 22.9863 1.48403 22.1791 1.61123 21.4992L3.01045 13.8088H0Z" fill="white"/>
<path d="M33.2006 27.5334H27.3493L25.9925 16.1464H25.9077L20.014 27.5334H14.2051L11.7458 9.39075H17.8091L18.6996 20.9901H18.8268L24.4237 9.39075H30.275L31.3774 20.9901H31.5046L37.0591 9.39075H43.1648L33.2006 27.5334Z" fill="white"/>
<path d="M39.813 27.5326L42.993 9.38998H48.8443L45.6219 27.5326H39.813ZM46.6819 6.84067C44.8587 6.84067 43.5018 5.6085 43.5018 3.90896C43.5018 1.95448 45.0283 0.424894 46.9363 0.424894C48.7171 0.424894 50.0315 1.69955 50.0315 3.35661C50.0739 5.2261 48.6747 6.84067 46.6819 6.84067Z" fill="white"/>
<path d="M66.0172 0H71.8261L66.95 27.5326H61.6075L62.0315 25.0683H61.9467C60.6747 26.8953 58.4699 28 55.7986 28C51.0921 28 48.2937 24.7283 48.2937 20.2246C48.2937 14.0212 52.4914 8.96509 58.3003 8.96509C60.9715 8.96509 62.9643 10.0698 63.9396 11.7693H64.0244L66.0172 0ZM57.8338 23.2412C60.7595 23.2412 62.9643 20.5645 62.9643 17.4628C62.9643 15.2534 61.5227 13.6388 59.1907 13.6388C56.0954 13.6388 54.1026 16.2306 54.1026 19.4173C54.1026 21.5842 55.417 23.2412 57.8338 23.2412Z" fill="white"/>
</g>
</svg>
