<svg width="29" height="38" viewBox="0 0 29 38" fill="none" xmlns="http://www.w3.org/2000/svg">
<path d="M13.3636 17.9375V7.66667C13.3636 7.06551 13.1242 6.48897 12.698 6.06389C12.2718 5.63881 11.6937 5.4 11.0909 5.4C10.4881 5.4 9.91007 5.63881 9.48385 6.06389C9.05763 6.48897 8.81818 7.06551 8.81818 7.66667V23.5333L6.22656 17.3057C5.62997 16.1752 4.18182 15.8536 3.07955 16.4783C1.97799 17.1024 1.7635 18.2881 2.23651 19.5667L5.97728 29.7667C7.41833 33.195 9.95455 36 16.2045 36C22.4545 36 27 31.8492 27 23.5333V11.0667C27 10.4655 26.7606 9.88897 26.3343 9.46389C25.9081 9.03881 25.33 8.8 24.7273 8.8C24.1245 8.8 23.5464 9.03881 23.1202 9.46389C22.694 9.88897 22.4545 10.4655 22.4545 11.0667V19V6.53333C22.4545 5.93218 22.2151 5.35564 21.7889 4.93056C21.3627 4.50548 20.7846 4.26667 20.1818 4.26667C19.5791 4.26667 19.001 4.50548 18.5748 4.93056C18.1485 5.35564 17.9091 5.93218 17.9091 6.53333V17.8667V4.26667C17.9091 3.66551 17.6696 3.08897 17.2434 2.66389C16.8172 2.23881 16.2391 2 15.6364 2C15.0336 2 14.4555 2.23881 14.0293 2.66389C13.6031 3.08897 13.3636 3.66551 13.3636 4.26667V17.8667" stroke="black" stroke-width="2.5" stroke-linecap="round" stroke-linejoin="round"/>
</svg>
