<svg width="116" height="132" viewBox="0 0 116 132" fill="none" xmlns="http://www.w3.org/2000/svg">
<path d="M57.8727 131.6C54.1393 128.533 47.606 121.667 38.2727 111C29.0727 100.2 20.4727 87.8667 12.4727 74C4.47266 60 0.472657 47 0.472657 35C0.472657 24.8667 3.07266 16.5333 8.27266 10C13.606 3.33333 21.5393 -3.33786e-06 32.0727 -3.33786e-06C38.3393 -3.33786e-06 43.4727 1.6 47.4727 4.79999C51.606 7.86666 55.0727 12 57.8727 17.2C60.806 11.8667 64.2727 7.66666 68.2727 4.6C72.2727 1.53333 77.406 -3.33786e-06 83.6727 -3.33786e-06C94.3393 -3.33786e-06 102.273 3.33333 107.473 10C112.806 16.5333 115.473 24.8667 115.473 35C115.473 47 111.473 60 103.473 74C95.4727 87.8667 86.7393 100.2 77.2727 111C67.9393 121.8 61.4727 128.667 57.8727 131.6Z" fill="black"/>
</svg>
